<svg width="29" height="28" viewBox="0 0 29 28" fill="none" xmlns="http://www.w3.org/2000/svg">
<path fill-rule="evenodd" clip-rule="evenodd" d="M23.1657 17.6658C23.1717 17.4214 23.0886 17.183 22.9315 16.9957C22.7518 16.7941 22.5202 16.6458 22.2619 16.5668C21.904 16.4569 21.5309 16.4048 21.1565 16.4126C20.7748 16.405 20.394 16.4558 20.0276 16.5634C19.7547 16.6351 19.5088 16.7855 19.3205 16.9957C19.1628 17.1932 19.0796 17.4399 19.0857 17.6925C19.0847 17.8918 19.1378 18.0875 19.2394 18.2589C19.3455 18.4285 19.4945 18.5671 19.6712 18.661C19.8789 18.7701 20.1069 18.8351 20.341 18.852L21.4029 18.9425C21.5263 18.9507 21.6493 18.9651 21.7713 18.986C21.8501 18.9979 21.9249 19.029 21.989 19.0765C22.0129 19.0999 22.0316 19.1281 22.0438 19.1593C22.0558 19.1905 22.0611 19.2239 22.0592 19.2575C22.0578 19.2939 22.0484 19.3297 22.0316 19.3622C22.0148 19.3945 21.991 19.4228 21.962 19.445C21.8807 19.5076 21.7869 19.5521 21.6871 19.5757C21.5436 19.6115 21.3963 19.6295 21.2484 19.6294C21.0561 19.6317 20.864 19.6137 20.6756 19.5757C20.5447 19.5503 20.4233 19.4902 20.3239 19.4014C20.2409 19.3158 20.1921 19.2025 20.1868 19.0831H18.9607C18.9649 19.2908 19.0213 19.4938 19.125 19.6736C19.2284 19.8535 19.3757 20.0041 19.5531 20.1118C20.0483 20.3678 20.6042 20.4837 21.1607 20.4469C21.7133 20.4812 22.2642 20.3566 22.7487 20.0884C22.9199 19.9792 23.0595 19.827 23.1535 19.6471C23.2477 19.4673 23.2931 19.2659 23.2854 19.063C23.2905 18.9159 23.2632 18.7692 23.2053 18.6338C23.1476 18.4982 23.0607 18.3772 22.9509 18.279C22.684 18.0668 22.3541 17.949 22.0132 17.9439L21.1891 17.8802C20.9614 17.8736 20.7357 17.8341 20.5193 17.763C20.3752 17.7093 20.3016 17.6256 20.3016 17.5183C20.3069 17.4627 20.328 17.4098 20.3626 17.3659C20.3969 17.3219 20.4434 17.2888 20.4961 17.2704C20.6769 17.1981 20.8712 17.1661 21.0656 17.1765C21.2886 17.1629 21.5114 17.2031 21.7155 17.2939C21.7899 17.3276 21.8548 17.3793 21.9044 17.444C21.954 17.509 21.9868 17.5852 21.9999 17.6658H23.1657Z" fill="#21325D"/>
<path fill-rule="evenodd" clip-rule="evenodd" d="M23.8849 15.5315L23.8842 16.5367H23.3315L23.3309 17.4381H23.8837L23.8823 19.5322C23.8718 19.7215 23.9184 19.9095 24.016 20.0718C24.1182 20.2123 24.2643 20.3148 24.4312 20.3632C24.6624 20.4266 24.9016 20.4559 25.1412 20.4504H25.9352L25.9357 19.549H25.4533C25.3781 19.5509 25.3027 19.5443 25.2289 19.5289C25.1801 19.5202 25.1368 19.4925 25.1084 19.4519C25.0805 19.4028 25.0657 19.3474 25.065 19.291C25.065 19.2207 25.0651 19.1336 25.0651 19.023L25.0661 17.4381H25.9472L25.9478 16.5367H25.0567L25.0574 15.5315H23.8849Z" fill="#21325D"/>
<path fill-rule="evenodd" clip-rule="evenodd" d="M10.7411 11.0414L21.4335 6.01524L11.7253 1.4381C11.2464 1.2172 10.6998 1.19351 10.2034 1.37217C9.7069 1.55083 9.30045 1.91749 9.07169 2.39307L1.88005 17.6423C1.65912 18.1219 1.63559 18.6691 1.81453 19.1657C1.99347 19.6622 2.36052 20.0683 2.83641 20.2962L16.5263 26.7464L16.536 11.5205L10.7391 14.2447L10.7411 11.0414Z" fill="url(#paint0_linear_351_1666)"/>
<defs>
<linearGradient id="paint0_linear_351_1666" x1="6.8108" y1="1.25342" x2="31.3131" y2="30.5614" gradientUnits="userSpaceOnUse">
<stop offset="0.166025" stop-color="#F17248"/>
<stop offset="1" stop-color="#FF0000"/>
</linearGradient>
</defs>
</svg>
