<svg width="29" height="28" viewBox="0 0 29 28" fill="none" xmlns="http://www.w3.org/2000/svg">
<g clip-path="url(#clip0_351_1659)">
<path fill-rule="evenodd" clip-rule="evenodd" d="M16.1641 8.10937L25.2425 6.18622C22.6708 1.52138 23.2098 2.02022 15.7173 2.02022C7.38889 2.02022 9.06924 1.32582 5.1349 8.07503C0.969792 15.0922 0.966433 12.9607 5.12736 19.9802C9.02567 26.5953 7.51092 25.9852 14.6292 25.9852H16.3566L20.0617 10.6255L15.1919 11.3993L16.1641 8.10937ZM13.1299 2.82301C11.0979 2.7818 10.083 2.76119 9.36226 3.15269C8.64151 3.54418 8.16059 4.389 7.18237 6.07861C6.81463 6.7105 6.38091 7.45228 5.83643 8.35434C5.29191 9.25639 4.8323 9.97069 4.4222 10.5957C3.37099 12.2418 2.87265 13.2244 2.87215 14.0051C2.87166 14.7858 3.36896 15.4494 4.41808 17.0977C4.81799 17.7252 5.59677 18.9515 5.82948 19.3414C6.06217 19.7313 6.78858 21.8278 6.78858 21.8278C6.42165 21.1914 5.98655 20.4381 5.45022 19.5589C4.91392 18.6798 4.44346 17.9335 4.05298 17.3222C2.95915 15.6074 2.36134 14.9071 2.36192 14.0051C2.36249 13.103 2.95667 12.0885 4.05738 10.3714C4.44628 9.76235 4.90825 9.03889 5.45745 8.13683C6.00667 7.23481 6.42859 6.50445 6.79869 5.86799C7.81464 4.11197 8.32381 3.23282 9.15529 2.7818C9.98676 2.33077 11.0393 2.35367 13.1396 2.39488C13.1396 2.39488 18.4547 2.43858 19.8627 2.44087C18.0086 2.65812 17.7426 2.8214 15.8754 2.85735C14.8347 2.85735 13.9093 2.83903 13.1299 2.82301Z" fill="#83B235"/>
<path fill-rule="evenodd" clip-rule="evenodd" d="M21.6423 19.1875C21.887 19.3351 22.7632 19.7398 23.0058 19.466C23.4957 18.9113 22.0271 18.4876 21.6675 17.8448C21.5578 17.6467 21.5111 17.4213 21.5333 17.1973C21.5451 17.0105 21.5988 16.8284 21.6906 16.6639C21.7825 16.4994 21.9104 16.3564 22.0653 16.2451C22.6752 15.8118 23.8161 15.8189 24.5381 16.1974L23.9229 17.1568C23.7173 17.133 23.0369 16.7045 22.826 17.1307C22.5589 17.6663 24.5565 17.9615 24.4627 19.2541C24.4675 19.4446 24.4283 19.6336 24.3481 19.8075C24.268 19.9813 24.1488 20.1355 23.9993 20.2587C23.6094 20.5096 23.146 20.63 22.6794 20.6015C22.0906 20.6217 21.5087 20.4744 21.005 20.1778L21.6423 19.1875ZM27.4374 19.2946L27.8211 20.3611C27.5621 20.464 27.2919 20.5375 27.0155 20.5801C26.8682 20.5945 26.7204 20.6017 26.5724 20.6015C26.3928 20.6196 26.2116 20.598 26.042 20.5382C25.8724 20.4784 25.7189 20.3821 25.5933 20.2564C25.0036 19.635 25.4674 17.89 25.5952 17.1973H24.8948L25.0253 16.0617H25.6717L25.7604 15.3476L27.2296 15L27.0991 16.0594H28.0076L27.8721 17.1949H26.8928C26.7795 18.1948 26.1148 19.9611 27.4374 19.2946Z" fill="#83B235"/>
</g>
<defs>
<clipPath id="clip0_351_1659">
<rect width="28" height="28" fill="white" transform="matrix(1 0 -0.000633003 1 0.0177307 0)"/>
</clipPath>
</defs>
</svg>
