<svg width="52" height="20" viewBox="0 0 52 20" fill="none" xmlns="http://www.w3.org/2000/svg">
<path d="M46.7543 7.64365C48.3381 7.64371 49.6228 6.35921 49.6238 4.77463C49.6247 3.19005 48.3415 1.90544 46.7577 1.90537C45.1738 1.90531 43.8891 3.18982 43.8882 4.7744C43.8873 6.35898 45.1704 7.64358 46.7543 7.64365Z" fill="#0082CF"/>
<path d="M10.0043 0.252868C4.48835 0.252571 0.00999319 4.66813 0.00683463 10.1248C0.00367606 15.5815 4.47692 19.9975 9.99287 19.9978C13.0818 19.998 15.8563 18.6103 17.6857 16.434L17.5912 16.4656L14.756 13.7528C13.652 15.1721 11.9178 16.0868 9.99514 16.0866C6.68557 16.0865 4.00794 13.4053 4.00984 10.125C4.01174 6.8447 6.69247 4.16383 10.002 4.164C11.9563 4.16411 13.6578 5.0789 14.7602 6.49832L17.5985 3.78591L17.6616 3.75438C15.8031 1.641 13.0617 0.253033 10.0043 0.252868ZM41.0829 0.002213C35.5985 0.00191748 31.1516 4.41747 31.1485 9.87413C31.1453 15.3308 35.587 19.7468 41.0715 19.7471C46.5559 19.7474 51.0027 15.3319 51.0059 9.8752C51.0064 8.9605 50.8809 8.0458 50.6292 7.19417C49.8405 8.3927 48.5162 9.2127 47.0032 9.30724C47.0346 9.49649 47.0345 9.68574 47.0344 9.87499C47.0325 13.1868 44.3518 15.8362 41.0737 15.836C37.7957 15.8358 35.118 13.1547 35.1199 9.87435C35.1219 6.5625 37.8026 3.91317 41.0806 3.91335C41.4904 3.91337 41.8686 3.94493 42.2468 4.03957C42.4683 2.55714 43.4146 1.32708 44.6758 0.664776C43.5413 0.254676 42.3437 0.00228094 41.0829 0.002213ZM19.5231 0.474172L23.4316 0.474383L23.4226 15.9928L30.483 15.9931L31.4579 19.8097L19.4804 19.809L19.4916 0.474171L19.5231 0.474172Z" fill="#21325D"/>
</svg>
