<svg width="29" height="28" viewBox="0 0 29 28" fill="none" xmlns="http://www.w3.org/2000/svg">
<path d="M20.2847 11.5136C22.0392 11.5137 23.4625 10.0826 23.4635 8.31719C23.4646 6.55177 22.043 5.12056 20.2884 5.12049C18.5339 5.12042 17.1106 6.55152 17.1096 8.31693C17.1085 10.0823 18.5301 11.5136 20.2847 11.5136Z" fill="#0999EE"/>
<path d="M14.0002 3.0001C7.92398 2.99978 2.9973 7.91965 2.99379 13.9995C2.99027 20.0794 7.91124 24.9998 13.9875 25.0002C20.0637 25.0005 24.9903 20.0806 24.9939 14.0007C24.9945 12.9816 24.8554 11.9624 24.5765 11.0135C23.7027 12.3489 22.2355 13.2626 20.5593 13.3679C20.5941 13.5788 20.594 13.7896 20.5939 14.0005C20.5917 17.6906 17.6217 20.6425 13.99 20.6423C10.3582 20.6421 7.39169 17.6547 7.3938 13.9998C7.39594 10.3097 10.3659 7.35775 13.9977 7.35795C14.4516 7.35797 14.8707 7.39314 15.2897 7.49859C15.5351 5.84684 16.5835 4.47629 17.9807 3.73834C16.7239 3.2814 15.397 3.00018 14.0002 3.0001Z" fill="#21325D"/>
</svg>
