<svg viewBox="0 0 20 20" fill="none" xmlns="http://www.w3.org/2000/svg">
<path fill-rule="evenodd" clip-rule="evenodd" d="M2.77783 5.00001C2.77783 4.69319 3.02656 4.44446 3.33339 4.44446H16.6667C16.9735 4.44446 17.2223 4.69319 17.2223 5.00001C17.2223 5.30684 16.9735 5.55557 16.6667 5.55557H3.33339C3.02656 5.55557 2.77783 5.30684 2.77783 5.00001Z" fill="#21325D"/>
<path fill-rule="evenodd" clip-rule="evenodd" d="M2.77783 10C2.77783 9.69319 3.02656 9.44446 3.33339 9.44446H16.6667C16.9735 9.44446 17.2223 9.69319 17.2223 10C17.2223 10.3068 16.9735 10.5556 16.6667 10.5556H3.33339C3.02656 10.5556 2.77783 10.3068 2.77783 10Z" fill="#21325D"/>
<path fill-rule="evenodd" clip-rule="evenodd" d="M2.77783 15C2.77783 14.6932 3.02656 14.4445 3.33339 14.4445H13.3334C13.6402 14.4445 13.8889 14.6932 13.8889 15C13.8889 15.3068 13.6402 15.5556 13.3334 15.5556H3.33339C3.02656 15.5556 2.77783 15.3068 2.77783 15Z" fill="#21325D"/>
</svg>
