<svg viewBox="0 0 13 12" fill="none" xmlns="http://www.w3.org/2000/svg">
<path d="M10.5063 10L7.62767 7.12132M7.62767 7.12132C8.17056 6.57843 8.50635 5.82843 8.50635 5C8.50635 3.34315 7.1632 2 5.50635 2C3.84949 2 2.50635 3.34315 2.50635 5C2.50635 6.65685 3.84949 8 5.50635 8C6.33477 8 7.08477 7.66421 7.62767 7.12132Z" stroke="#21325D" stroke-linecap="round"/>
<path fill-rule="evenodd" clip-rule="evenodd" d="M5.50631 2.33335C4.03355 2.33335 2.83964 3.52726 2.83964 5.00002C2.83964 6.47278 4.03355 7.66669 5.50631 7.66669C6.24278 7.66669 6.90899 7.36857 7.39192 6.88564C7.87486 6.4027 8.17297 5.73649 8.17297 5.00002C8.17297 3.52726 6.97907 2.33335 5.50631 2.33335ZM2.17297 5.00002C2.17297 3.15907 3.66536 1.66669 5.50631 1.66669C7.34726 1.66669 8.83964 3.15907 8.83964 5.00002C8.83964 5.80031 8.55728 6.53513 8.08728 7.10958L10.742 9.76432C10.8722 9.89449 10.8722 10.1055 10.742 10.2357C10.6118 10.3659 10.4008 10.3659 10.2706 10.2357L7.61587 7.58099C7.04142 8.05099 6.3066 8.33335 5.50631 8.33335C3.66536 8.33335 2.17297 6.84097 2.17297 5.00002Z" fill="#21325D"/>
</svg>
